<?xml version="1.0" encoding="utf-8"?>
<!-- Svg Vector Icons : http://www.onlinewebfonts.com/icon -->
<!DOCTYPE svg PUBLIC "-//W3C//DTD SVG 1.1//EN" "http://www.w3.org/Graphics/SVG/1.1/DTD/svg11.dtd">
<svg version="1.1" xmlns="http://www.w3.org/2000/svg" xmlns:xlink="http://www.w3.org/1999/xlink" x="0px" y="0px" viewBox="0 0 256 256" enable-background="new 0 0 256 256" xml:space="preserve">
<metadata> Svg Vector Icons : http://www.onlinewebfonts.com/icon </metadata>
<g><g><g><path fill="#000000" d="M117.8,10.4c-23.6,4.3-42,21-48.7,44.6c-2.1,7.5-2.1,23.2,0,30.9c4.5,16.1,15.4,29.9,30.3,38.1l4.8,2.6v49.5l0.1,49.6l9.2,7.9c5.1,4.4,10.4,8.9,11.9,10.1l2.6,2.2l11.9-10.2l11.8-10.1l0.1-6.8v-6.7H143h-8.6v-6.6v-6.5l8.4-0.2l8.4-0.2l0.2-6.8l0.2-6.7h-11.9h-11.9v-6.6V172l11.7-0.1l11.7-0.2l0.2-6.8l0.2-6.7H143h-8.6v-6.6V145l8.4-0.2l8.4-0.2l0.2-9l0.2-9l4.7-2.6c20.1-11,32.1-31.1,32.1-53.6c0-27.1-17.7-50.7-44-58.4c-4.7-1.4-7.5-1.8-14.7-1.9C125,9.9,119.5,10,117.8,10.4z M133.3,31.1c2.6,1.1,6.1,4.7,7,7.2c0.4,1.1,0.7,3.3,0.7,5.1c0,1.8-0.3,4-0.7,5.1c-0.9,2.5-4.4,6.1-7,7.2c-2.5,1.1-7.9,1.2-10.6,0.2c-2.5-0.9-6.1-4.4-7.2-7c-1.1-2.5-1.2-7.9-0.2-10.6c0.9-2.4,4.4-6.1,6.9-7.2C124.8,30,130.6,29.9,133.3,31.1z"/></g></g></g>
</svg>